<svg width="26" height="25" viewBox="0 0 26 25" fill="none" xmlns="http://www.w3.org/2000/svg">
<path fill-rule="evenodd" clip-rule="evenodd" d="M6.06789 22.8144C6.01633 22.9146 6.0016 22.9293 6.0016 22.9441C5.89849 24.1387 5.89849 24.1387 7.08577 24.1387C10.4281 24.1387 13.769 24.1387 17.1114 24.1387C17.2926 24.1387 17.4708 24.1387 17.7272 24.1387C17.7272 23.3064 17.7272 22.4992 17.7272 21.692C17.7272 20.1379 17.8332 20.0333 19.3991 20.0303C20.115 20.0303 20.8294 20.0274 21.5424 20.023C21.5733 20.023 21.6057 20.0038 21.672 19.9847C21.672 18.3908 21.672 16.7881 21.672 15.1825C21.2316 15.128 20.9664 15.2886 20.8869 15.7585C20.8412 16.0207 20.7145 16.3138 20.358 16.1916C20.0133 16.0722 20.0708 15.7791 20.1827 15.5228C20.3242 15.1869 20.2638 14.9439 20.059 14.6242C19.9043 14.3753 19.9058 13.9437 19.9957 13.6387C20.4936 11.9344 21.043 10.2463 21.5615 8.54638C21.6514 8.25176 21.7 7.93211 21.7029 7.62277C21.7147 5.51187 21.7 3.39951 21.7177 1.28861C21.7206 0.905617 21.6278 0.72885 21.2168 0.777461C20.9296 0.808395 20.6188 0.727377 20.6703 0.384154C20.6939 0.235375 21.0091 0.0438773 21.205 0.0276736C22.0889 -0.0459793 22.4483 0.316393 22.4513 1.21496C22.4542 2.62615 22.4542 4.03734 22.4542 5.56196C22.9256 5.11562 23.3925 4.98894 23.939 5.21284C24.5283 5.45442 24.7684 5.88014 24.6697 6.50766C24.6461 6.65349 24.7301 6.87887 24.845 6.97315C25.4371 7.47104 25.6242 8.00134 25.4062 8.74082C25.2427 9.29911 25.0895 9.86329 24.8774 10.401C24.814 10.5615 24.543 10.7677 24.3972 10.7486C24.0775 10.7059 24.0863 10.4348 24.1792 10.1623C24.3574 9.6276 24.5238 9.08846 24.6829 8.54638C24.7978 8.16485 24.7522 7.82163 24.3294 7.5771C23.8978 8.94999 23.506 10.3199 23.0346 11.6634C22.5912 12.9184 22.3923 14.1838 22.4424 15.5184C22.4999 17.0607 22.4734 18.6088 22.4395 20.1541C22.4336 20.4487 22.2892 20.8081 22.0889 21.0247C20.99 22.2046 19.8675 23.3639 18.717 24.4922C18.4843 24.7191 18.0866 24.8885 17.7625 24.89C13.99 24.9194 10.216 24.9106 6.44205 24.9076C5.5479 24.9076 5.2474 24.6027 5.24445 23.71C5.24298 23.4331 5.24445 23.1532 5.24445 22.8174C4.16912 22.8174 3.14092 22.8188 2.11715 22.8174C1.03592 22.8174 0.7855 22.5714 0.784027 21.5049C0.784027 20.3102 0.784027 19.117 0.784027 17.9032C0.682386 17.8856 0.610206 17.8915 0.561595 17.8605C0.365678 17.7383 0.0857971 17.641 0.0150903 17.4613C-0.0453052 17.3096 0.0857971 17.0047 0.227211 16.8633C1.38504 15.6937 2.56348 14.5461 3.73604 13.3913C3.92606 13.2042 4.13671 13.0363 4.30022 12.8271C4.55506 12.503 4.82168 12.313 5.2474 12.6533C5.2474 11.0255 5.2474 9.46409 5.2474 7.90265C5.2474 7.7524 5.21352 7.58152 5.27391 7.46073C5.33578 7.33552 5.49487 7.18527 5.61419 7.18379C5.72467 7.18085 5.8867 7.3311 5.95005 7.45484C6.01191 7.57563 5.98098 7.7465 5.98245 7.89528C5.98393 9.59077 5.99276 11.2863 5.97509 12.9818C5.97214 13.3279 6.08115 13.5666 6.32715 13.8067C7.30821 14.7524 8.27159 15.7172 9.24233 16.6747C9.47655 16.906 9.81683 17.1431 9.61502 17.5055C9.49423 17.7206 9.17752 17.8252 8.84755 18.0491C8.84755 19.117 8.84755 20.3279 8.84755 21.5358C8.84755 22.5552 8.59419 22.813 7.58956 22.813C7.07546 22.8159 6.56284 22.8144 6.06789 22.8144ZM3.2131 22.0175C3.2131 21.2117 3.20426 20.4516 3.21457 19.6901C3.22194 19.1318 3.41786 18.9418 3.96731 18.9344C4.51381 18.927 5.06326 18.93 5.60977 18.9329C6.24024 18.9388 6.43321 19.1318 6.43763 19.7711C6.44205 20.5135 6.4391 21.2559 6.4391 22.0057C7.01212 22.0057 7.52917 22.0057 8.06536 22.0057C8.06536 20.6137 8.06536 19.2585 8.06536 17.8944C5.88523 17.8944 3.73604 17.8944 1.5839 17.8944C1.5839 19.2835 1.5839 20.6372 1.5839 22.0175C2.12009 22.0175 2.62977 22.0175 3.2131 22.0175ZM1.25688 17.0872C3.61967 17.0872 6.04727 17.0872 8.36292 17.0872C7.2154 15.8852 6.02664 14.6419 4.81284 13.3692C3.59904 14.6375 2.41323 15.8778 1.25688 17.0872ZM5.63923 19.7077C5.07063 19.7077 4.53444 19.7077 3.98793 19.7077C3.98793 20.4944 3.98793 21.2471 3.98793 22.0146C4.55211 22.0146 5.08831 22.0146 5.63923 22.0146C5.63923 21.2324 5.63923 20.4796 5.63923 19.7077ZM18.499 23.2313C19.3019 22.5007 20.2284 21.6595 21.2036 20.7713C20.3639 20.7713 19.5862 20.7595 18.8128 20.7845C18.7067 20.7875 18.5138 20.9584 18.5108 21.0571C18.4873 21.8776 18.499 22.6995 18.499 23.2313ZM21.8075 10.3023C22.1036 10.3921 22.3452 10.4643 22.6045 10.5424C23.0449 9.1356 23.4677 7.7907 23.8904 6.44727C23.9744 6.18212 23.9243 5.99356 23.6341 5.90813C23.3749 5.83153 23.1937 5.8551 23.0994 6.16149C22.6811 7.5226 22.2524 8.88076 21.8075 10.3023ZM21.8709 12.9037C22.0462 12.3218 22.2053 11.8136 22.3688 11.2774C22.0815 11.1846 21.8502 11.111 21.5866 11.027C21.4113 11.5868 21.2492 12.0979 21.0798 12.6444C21.3524 12.7328 21.5821 12.8079 21.8709 12.9037ZM20.7734 13.3574C20.7469 13.7168 20.6806 14.007 20.7366 14.2722C20.7543 14.362 21.1859 14.4858 21.2433 14.4224C21.4304 14.2235 21.5306 13.9437 21.6926 13.6432C21.3671 13.5415 21.1343 13.4693 20.7734 13.3574Z" fill="#26416B"/>
<path fill-rule="evenodd" clip-rule="evenodd" d="M13.8295 6.09375C12.3328 6.09375 10.8377 6.09522 9.34107 6.09375C8.58097 6.0908 8.33202 5.83743 8.32907 5.07586C8.32613 4.62658 8.31876 4.1773 8.33497 3.72801C8.3497 3.25811 8.6119 2.98854 9.07739 2.95024C9.42208 2.92078 9.77415 2.93551 10.1233 2.93551C12.8322 2.93551 15.5412 2.93403 18.2516 2.93551C19.1428 2.93551 19.3741 3.16972 19.377 4.05945C19.377 4.44245 19.3888 4.82544 19.3741 5.20696C19.3505 5.80944 19.0721 6.08785 18.4711 6.0908C16.9214 6.09816 15.3777 6.09227 13.8295 6.09375ZM9.10538 3.70297C9.10538 4.27304 9.10538 4.79303 9.10538 5.32186C12.2901 5.32186 15.4351 5.32186 18.5845 5.32186C18.5845 4.76505 18.5845 4.24358 18.5845 3.70297C15.416 3.70297 12.2813 3.70297 9.10538 3.70297Z" fill="#26416B"/>
<path fill-rule="evenodd" clip-rule="evenodd" d="M12.7158 0.0114749C14.7752 0.0114749 16.8345 0.0114749 18.8953 0.0114749C19.0456 0.0114749 19.2179 -0.0268245 19.3358 0.0365171C19.4772 0.11017 19.6584 0.272207 19.6584 0.397417C19.6584 0.521154 19.4772 0.684663 19.3358 0.756843C19.2179 0.818711 19.0456 0.778939 18.8953 0.778939C14.7767 0.778939 10.6565 0.784831 6.53784 0.770101C6.10181 0.767154 5.96482 0.884999 5.97218 1.32544C5.9987 2.75431 5.98249 4.18171 5.98102 5.61057C5.98102 5.87867 6.00459 6.1939 5.62601 6.20274C5.21061 6.21158 5.24154 5.88014 5.24154 5.5929C5.24154 4.09774 5.2386 2.60259 5.24154 1.1089C5.24449 0.353225 5.57593 0.0158942 6.3375 0.0129481C8.4646 0.00705583 10.5902 0.0114749 12.7158 0.0114749Z" fill="#26416B"/>
<path fill-rule="evenodd" clip-rule="evenodd" d="M14.9093 17.5203C14.5897 17.8694 14.3112 18.1979 14.0078 18.5043C13.5187 18.9963 13.2433 18.9211 13.0312 18.2597C12.9973 18.1507 12.9575 18.0417 12.8897 17.8399C12.7778 18.1419 12.7365 18.3953 12.5995 18.572C12.4935 18.709 12.2652 18.7488 12.0913 18.8313C12.0295 18.6634 11.8792 18.4689 11.9234 18.3334C12.1282 17.6705 12.3698 17.0135 12.6334 16.3728C12.6879 16.2402 12.9059 16.0796 13.0282 16.0958C13.1578 16.112 13.3184 16.305 13.3655 16.4508C13.4893 16.8441 13.56 17.2536 13.6719 17.7515C13.9754 17.4098 14.2346 17.1181 14.4939 16.8279C14.8474 16.4361 14.9859 16.4331 15.3306 16.8102C15.4308 16.9222 15.528 17.0356 15.6326 17.1417C16.291 17.7928 16.403 17.8001 17.1233 17.2448C17.7626 16.7528 18.0351 16.7793 18.6744 17.2139C18.8984 17.3656 19.2534 17.3951 19.5347 17.3626C19.7999 17.3317 20.0812 17.233 20.1357 17.5512C20.1622 17.7073 19.9545 17.9961 19.7822 18.0786C19.2239 18.3481 18.6744 18.2465 18.2163 17.8281C17.9983 17.6278 17.8274 17.616 17.6212 17.8149C16.8007 18.6 16.2233 18.7473 15.0993 17.6779C15.0492 17.6337 14.9977 17.5939 14.9093 17.5203Z" fill="#26416B"/>
<path fill-rule="evenodd" clip-rule="evenodd" d="M13.5466 11.2347C12.0868 11.2347 10.6256 11.2347 9.1628 11.2347C9.04643 11.2347 8.90649 11.2745 8.81958 11.2244C8.64281 11.1257 8.49551 10.9755 8.33789 10.8458C8.49845 10.7191 8.66049 10.4864 8.824 10.4849C11.994 10.4628 15.1655 10.4628 18.337 10.4835C18.5035 10.4849 18.7863 10.6853 18.8143 10.834C18.8806 11.1566 18.5992 11.2318 18.3282 11.2332C16.7343 11.2347 15.1405 11.2347 13.5466 11.2347Z" fill="#26416B"/>
<path fill-rule="evenodd" clip-rule="evenodd" d="M13.5834 9.01333C12.0735 9.01333 10.5636 9.01333 9.05374 9.01039C8.90349 9.01039 8.7385 9.03248 8.61182 8.97503C8.4984 8.922 8.35109 8.77175 8.35698 8.67306C8.36435 8.53901 8.47925 8.36961 8.59709 8.30037C8.71052 8.23261 8.88581 8.26649 9.03606 8.26502C12.075 8.26502 15.1095 8.26502 18.1469 8.26502C18.2795 8.26502 18.4371 8.23114 18.5388 8.28859C18.6625 8.36077 18.8157 8.50955 18.8172 8.63034C18.8231 8.74524 18.6758 8.90875 18.552 8.97503C18.4342 9.03838 18.2618 9.00891 18.1145 9.00891C16.6046 9.01333 15.0948 9.01333 13.5834 9.01333Z" fill="#26416B"/>
<path fill-rule="evenodd" clip-rule="evenodd" d="M11.396 13.2808C10.5667 13.2808 9.73883 13.2808 8.9095 13.2808C8.63404 13.2808 8.33648 13.2837 8.34237 12.9007C8.34826 12.5561 8.61931 12.5428 8.88151 12.5428C10.5726 12.5443 12.2651 12.5457 13.9562 12.5413C14.2331 12.5413 14.485 12.5929 14.4777 12.9214C14.4688 13.2528 14.2007 13.2837 13.9341 13.2823C13.0871 13.2779 12.2416 13.2808 11.396 13.2808Z" fill="#26416B"/>
</svg>
