<svg width="24" height="28" viewBox="0 0 24 28" fill="none" xmlns="http://www.w3.org/2000/svg">
<path fill-rule="evenodd" clip-rule="evenodd" d="M19.6192 3.5863C20.4125 3.5863 21.113 3.58031 21.8135 3.58929C22.6666 3.60127 23.1995 4.12215 23.1995 4.97831C23.2055 10.1512 23.2115 15.3181 23.1935 20.491C23.1935 21.3891 22.8163 22.1674 22.1637 22.7901C21.0321 23.8677 19.8886 24.9424 18.745 26.0082C18.0236 26.6877 17.1585 27.029 16.1646 27.029C12.6292 27.026 9.09377 27.029 5.56136 27.026C4.46871 27.026 3.99572 26.547 3.99273 25.4484C3.99273 24.8017 3.99273 24.1551 3.99273 23.4427C3.27128 23.4427 2.59174 23.4457 1.9122 23.4427C0.921326 23.4307 0.409424 22.9367 0.409424 21.9549C0.409424 15.1325 0.409424 8.30417 0.409424 1.48182C0.409424 0.505913 0.927312 0.00299357 1.91818 0C7.31859 0 12.716 0 18.1134 0C19.1103 0.00299357 19.6102 0.499926 19.6162 1.48481C19.6222 2.16735 19.6192 2.84988 19.6192 3.5863ZM16.6795 26.0501C16.6795 24.9215 16.6765 23.8857 16.6825 22.8529C16.6885 21.5537 17.4039 20.8383 18.7121 20.8293C19.679 20.8233 20.646 20.8023 21.6129 20.8383C22.1008 20.8562 22.2445 20.7065 22.2445 20.2216C22.2266 15.2283 22.2326 10.235 22.2326 5.24174C22.2326 4.60711 22.1727 4.55322 21.5381 4.55322C16.2454 4.55322 10.9558 4.55322 5.66314 4.55322C5.01952 4.55322 4.96863 4.60711 4.96863 5.24174C4.96863 11.9384 4.96863 18.638 4.96863 25.3346C4.96863 26.0082 5.01354 26.0501 5.69008 26.0501C9.13568 26.0501 12.5813 26.0501 16.0269 26.0501C16.2125 26.0501 16.4011 26.0501 16.6795 26.0501ZM18.6522 3.5863C18.6522 2.92771 18.6522 2.33499 18.6522 1.74226C18.6493 0.999852 18.6223 0.975904 17.8739 0.975904C12.6471 0.97291 7.42636 0.97291 2.20257 0.975904C1.39132 0.975904 1.38234 0.984884 1.38234 1.80213C1.38234 8.41493 1.38234 15.0277 1.38234 21.6405C1.38234 21.8022 1.34342 21.9758 1.4003 22.1105C1.46017 22.2512 1.60985 22.4428 1.7266 22.4488C2.47199 22.4787 3.22338 22.4638 3.99273 22.4638C3.99273 22.1764 3.99273 21.9668 3.99273 21.7573C3.99273 16.2341 3.99273 10.714 3.99273 5.19085C3.99273 4.0503 4.45374 3.5863 5.58531 3.5863C9.70147 3.5863 13.8176 3.5863 17.9338 3.5863C18.1433 3.5863 18.3529 3.5863 18.6522 3.5863ZM17.6823 25.4903C17.7242 25.5112 17.7662 25.5292 17.8111 25.5471C19.0863 24.3467 20.3616 23.1433 21.7416 21.8441C20.4993 21.8441 19.4186 21.8201 18.3379 21.8561C17.9428 21.865 17.6973 22.1674 17.6883 22.5596C17.6704 23.5385 17.6823 24.5144 17.6823 25.4903Z" fill="#26416B"/>
<path fill-rule="evenodd" clip-rule="evenodd" d="M13.5992 8.13348C15.0601 8.13348 16.5209 8.13349 17.9788 8.13648C18.1375 8.13648 18.3291 8.10056 18.4398 8.17839C18.5925 8.28616 18.7631 8.48972 18.7601 8.64239C18.7541 8.79506 18.5626 8.98067 18.4069 9.07945C18.2901 9.1513 18.0986 9.11238 17.9429 9.11238C15.0421 9.11538 12.1413 9.11238 9.24057 9.11238C9.09988 9.11238 8.92625 9.15729 8.82746 9.08843C8.65982 8.97468 8.4353 8.78908 8.4353 8.63641C8.4353 8.47475 8.64785 8.28316 8.8095 8.16342C8.9023 8.09756 9.08192 8.13648 9.22261 8.13648C10.6835 8.13349 12.1443 8.13348 13.5992 8.13348Z" fill="#26416B"/>
<path fill-rule="evenodd" clip-rule="evenodd" d="M13.5992 11.3995C15.093 11.3995 16.5868 11.4025 18.0806 11.3965C18.4458 11.3965 18.7871 11.4355 18.7781 11.8995C18.7721 12.3335 18.4458 12.3665 18.1015 12.3665C15.093 12.3635 12.0874 12.3635 9.0819 12.3665C8.73764 12.3665 8.41134 12.3246 8.40834 11.8935C8.40535 11.4325 8.74961 11.3965 9.11184 11.3965C10.6116 11.4025 12.1024 11.3995 13.5992 11.3995Z" fill="#26416B"/>
<path fill-rule="evenodd" clip-rule="evenodd" d="M13.605 15.6264C12.1082 15.6264 10.6144 15.6234 9.12063 15.6294C8.7584 15.6294 8.40816 15.5965 8.41115 15.1355C8.41415 14.6655 8.77936 14.6595 9.1326 14.6595C12.1202 14.6595 15.1108 14.6505 18.1013 14.6745C18.3229 14.6775 18.6522 14.8451 18.7509 15.0307C18.9276 15.351 18.6282 15.6234 18.1403 15.6234C16.6285 15.6294 15.1138 15.6264 13.605 15.6264Z" fill="#26416B"/>
<path fill-rule="evenodd" clip-rule="evenodd" d="M11.5425 17.9136C12.3328 17.9136 13.1231 17.9166 13.9134 17.9136C14.2667 17.9136 14.572 17.9914 14.554 18.4225C14.5361 18.8057 14.2517 18.8925 13.9224 18.8925C12.2909 18.8895 10.6564 18.8895 9.02491 18.8895C8.68963 18.8895 8.41422 18.7907 8.41123 18.4045C8.40524 18.0094 8.68065 17.9136 9.01593 17.9136C9.85712 17.9166 10.7013 17.9166 11.5425 17.9136Z" fill="#26416B"/>
</svg>
