<svg width="33" height="32" viewBox="0 0 33 32" fill="none" xmlns="http://www.w3.org/2000/svg">
<path fill-rule="evenodd" clip-rule="evenodd" d="M15.3777 14.4665C14.2554 14.2043 13.868 13.7346 13.8406 12.6764C13.8375 12.533 13.8375 12.3897 13.8406 12.2494C13.8833 10.9136 13.9839 9.56564 12.8586 8.48604C11.9803 9.38266 10.8366 9.90111 9.45814 9.78522C8.09796 9.66628 6.95127 9.17527 6.12784 7.91878C6.12784 8.15666 6.12479 8.39454 6.12784 8.63242C6.13699 9.08988 5.90826 9.29421 5.4569 9.29116C4.20041 9.28506 2.94088 9.28506 1.68439 9.29421C1.19643 9.29726 0.992101 9.07463 0.995151 8.59278C1.00125 5.97611 1.00125 3.35944 0.995151 0.745828C0.995151 0.215176 1.24523 0.0321929 1.74538 0.0382923C2.92258 0.0504912 4.09672 0.0382921 5.27392 0.0413418C6.01805 0.0443915 6.12479 0.151132 6.13089 0.880017C6.13394 1.0996 6.13089 1.31918 6.13089 1.56925C6.31082 1.56925 6.42976 1.5906 6.53955 1.56316C6.67679 1.53266 6.81708 1.48386 6.93297 1.40762C9.76616 -0.370371 12.9226 0.0199944 16.0181 0.0718398C16.8049 0.0840387 17.5155 0.437807 18.0828 0.998956C19.5253 2.42623 20.9587 3.85655 22.3829 5.29907C22.9898 5.91512 23.1636 6.6684 22.8373 7.48267C22.5293 8.25426 21.9376 8.64462 21.102 8.69646C20.9465 8.70561 20.7696 8.8459 20.6567 8.97704C20.0437 9.69373 19.9126 10.5446 19.9949 11.4595C20.0437 11.9597 20.0163 12.472 19.9949 12.9813C19.9614 13.6614 19.6015 14.1616 18.9611 14.3324C18.5067 14.4513 18.467 14.677 18.4701 15.0521C18.4823 16.4519 18.4823 17.8517 18.4731 19.2516C18.4701 20.0506 17.2837 20.8069 16.5488 20.4776C16.3261 20.383 16.1187 20.2458 15.8961 20.1573C15.4996 20.0018 15.3685 19.7151 15.3716 19.3004C15.3868 17.9249 15.3777 16.5434 15.3777 15.168C15.3777 14.9423 15.3777 14.7227 15.3777 14.4665ZM6.15529 6.71109C6.80793 6.63485 7.15255 6.89408 7.25929 7.53757C7.29588 7.76325 7.54291 7.97978 7.7442 8.13531C8.80245 8.96484 10.5987 8.98924 11.6661 8.16276C11.9345 7.95233 12.1754 7.61686 12.27 7.29664C12.4011 6.85443 12.6329 6.72024 13.0538 6.72329C14.0907 6.73244 15.1245 6.72939 16.1584 6.72329C16.9727 6.72024 17.4515 6.32073 17.4332 5.66809C17.4179 5.03984 16.9544 4.66778 16.1675 4.66473C14.6884 4.66168 13.2063 4.66473 11.7271 4.66473C11.413 4.66473 11.0958 4.66473 10.7939 4.66473C10.7939 4.28046 10.7939 3.98464 10.7939 3.64307C11.7851 3.64307 12.7396 3.68271 13.6851 3.63087C14.3591 3.59122 15.0208 3.41434 15.6948 3.3259C16.2926 3.2527 16.9086 3.11547 17.4881 3.20086C18.1621 3.3015 18.8056 3.61562 19.5863 3.8779C18.9184 3.23136 18.2901 2.67021 17.7168 2.05721C17.0611 1.36187 16.2773 1.0508 15.3319 1.063C13.9717 1.07825 12.6146 1.02945 11.2575 1.08435C10.6689 1.1057 10.062 1.23988 9.50694 1.44422C8.39684 1.84983 7.31723 2.33779 6.15529 2.81659C6.15529 4.01209 6.15529 5.33872 6.15529 6.71109ZM2.04121 8.27255C2.92258 8.27255 3.73076 8.24816 4.53588 8.2817C4.99029 8.30305 5.12448 8.15667 5.12143 7.70226C5.09703 5.65589 5.11228 3.60952 5.10923 1.5662C5.10923 1.41372 5.07264 1.26123 5.05434 1.11485C4.02048 1.11485 3.03847 1.11485 2.04121 1.11485C2.04121 3.50278 2.04121 5.84192 2.04121 8.27255ZM15.3746 9.85231C15.7619 10.1176 16.0516 10.2396 16.4634 9.956C16.9147 9.64493 17.5033 9.84316 17.793 10.2823C18.0797 10.7215 17.9791 11.3223 17.5674 11.6455C17.1587 11.9688 16.6128 11.8895 16.1797 11.548C15.8138 11.2552 15.3746 11.0509 14.8775 10.7489C14.8775 11.5419 14.8806 12.1457 14.8775 12.7526C14.8745 13.2131 15.1154 13.4083 15.5545 13.4083C16.4664 13.4083 17.3752 13.4022 18.2871 13.4083C18.7659 13.4144 18.9916 13.1765 18.9916 12.7069C18.9916 11.9383 19.0038 11.1667 18.9824 10.3982C18.9763 10.2488 18.8696 10.0353 18.7476 9.9621C17.4972 9.25151 16.6799 9.03804 15.3746 9.85231ZM14.4566 9.16307C16.1248 8.04992 17.7442 8.06822 19.3637 9.13258C19.5283 8.73916 20.0071 8.51348 19.6046 8.07127C19.1715 7.59856 18.7385 7.12585 18.2719 6.61655C17.1069 8.37624 15.3746 7.47048 13.8589 7.83034C14.0571 8.26645 14.2371 8.67207 14.4566 9.16307ZM16.4298 14.4604C16.4298 16.0097 16.4146 17.5163 16.4481 19.0228C16.4512 19.1845 16.7653 19.465 16.9025 19.4468C17.0947 19.4224 17.4088 19.1723 17.4118 19.0167C17.4515 17.5102 17.4332 15.9975 17.4332 14.4604C17.0947 14.4604 16.8202 14.4604 16.4298 14.4604ZM21.2148 7.56807C21.8705 7.51317 22.2426 6.77514 21.7546 6.16519C21.3277 5.62844 20.797 5.17403 20.3914 4.76537C20.6506 5.64674 20.9312 6.5952 21.2148 7.56807ZM18.156 4.42075C18.4243 5.45765 19.138 6.39697 19.9827 6.83308C19.7754 5.71383 19.202 4.91175 18.156 4.42075Z" fill="#26416B"/>
<path fill-rule="evenodd" clip-rule="evenodd" d="M27.9183 22.1732C28.3483 21.2735 28.394 21.2552 29.2876 21.5785C30.0073 21.8408 30.7301 22.1153 31.456 22.3653C31.9531 22.5392 32.1208 22.8106 31.9256 23.3352C31.0229 25.7658 30.1385 28.1964 29.2632 30.6393C29.0711 31.1638 28.7753 31.2644 28.2812 31.0693C27.5828 30.7948 26.8753 30.5569 26.1708 30.3007C25.2437 29.9622 25.2254 29.9317 25.448 28.8948C25.2193 28.9253 25.0119 28.9192 24.8228 28.9772C24.1305 29.1906 23.4291 29.4072 22.7551 29.6694C22.2671 29.8616 21.8371 29.825 21.3553 29.645C18.0921 28.4374 14.8136 27.2571 11.5443 26.0647C10.4373 25.6591 9.82731 24.8204 9.9188 23.8414C10.0469 22.5056 11.3491 21.667 12.6819 22.1031C13.6059 22.408 14.5117 22.7588 15.4175 23.1034C15.7102 23.2162 15.8719 23.1857 16.1341 22.9417C16.5001 22.6032 16.982 22.2861 17.4638 22.1854C19.6657 21.7402 21.8859 21.362 24.097 20.9869C24.3623 20.9442 24.6642 21.0052 24.9235 21.0936C25.9177 21.4352 26.8997 21.8042 27.9183 22.1732ZM23.8377 25.2229C21.7975 25.5676 19.8121 25.9427 17.8115 26.2233C16.8356 26.3605 16.0061 25.6865 15.7194 24.735C15.6614 24.5398 15.5577 24.2714 15.4083 24.2104C14.3562 23.7926 13.2948 23.3992 12.2152 23.0546C11.7242 22.8929 11.2942 23.1095 11.0502 23.5913C10.8337 24.0213 10.9954 24.5794 11.4284 24.8722C11.5931 24.9851 11.7913 25.0522 11.9774 25.1223C15.0179 26.2294 18.0646 27.3212 21.0899 28.4648C21.7822 28.721 22.3769 28.7271 23.0662 28.4953C23.9597 28.1964 24.8045 27.5834 25.8628 27.9402C26.4422 26.3452 27.0095 24.7716 27.592 23.1644C26.6526 22.8198 25.7896 22.4782 24.9113 22.1946C24.5788 22.0878 24.1915 22.0329 23.8499 22.0878C21.7944 22.4202 19.742 22.7954 17.6925 23.1674C16.982 23.2925 16.6038 23.7621 16.6953 24.3751C16.7868 24.9698 17.3235 25.3175 18.025 25.1985C19.0039 25.0308 19.9798 24.8478 20.9558 24.674C21.8432 24.5185 22.7337 24.369 23.667 24.2104C23.731 24.5611 23.7768 24.8356 23.8377 25.2229ZM28.9216 22.5483C28.0921 24.8295 27.287 27.0467 26.4636 29.3035C27.1376 29.5475 27.7505 29.767 28.394 30.0049C29.2266 27.7115 30.0317 25.5005 30.8491 23.2498C30.1873 23.0088 29.5865 22.7862 28.9216 22.5483Z" fill="#26416B"/>
</svg>
