<svg width="29" height="29" viewBox="0 0 29 29" fill="none" xmlns="http://www.w3.org/2000/svg">
<path fill-rule="evenodd" clip-rule="evenodd" d="M1.2344 11.9491C1.2344 11.5848 1.23663 11.2496 1.2344 10.9166C1.22993 10.4271 1.46011 10.1791 1.95401 10.1835C2.10598 10.1858 2.25795 10.1701 2.40768 10.1835C3.15188 10.2439 3.71059 10.1724 4.16873 9.35666C4.80789 8.21913 6.37451 8.06269 7.4584 8.82477C7.59249 8.92087 7.71988 9.03038 7.8495 9.13318C9.31555 8.09845 10.1156 8.09845 11.4744 9.11753C12.9986 8.10963 13.7785 8.10963 15.1127 9.13318C16.3128 8.09622 17.533 8.09622 18.7354 9.13988C20.0785 8.09622 20.93 8.09398 22.3603 9.12424C23.5671 8.23925 24.613 8.14315 25.5672 8.81583C26.6713 9.59579 26.5997 10.7825 26.6087 11.958C27.0042 11.958 27.3506 11.958 27.7753 11.958C27.7753 11.6071 27.7753 11.2719 27.7753 10.9412C27.7753 9.78798 27.7753 8.63928 27.7775 7.48834C27.7775 7.05478 27.8066 6.59441 28.3787 6.58323C28.9485 6.5743 29 7.01009 29 7.46152C28.9932 9.0639 28.9999 10.6685 28.9955 12.2709C28.9955 13.0285 28.8368 13.1782 28.0524 13.1849C27.5875 13.1872 27.1205 13.1849 26.593 13.1849C26.593 13.4732 26.593 13.6967 26.593 13.9157C26.593 17.9898 26.5953 22.0662 26.5908 26.1402C26.5908 27.584 25.8913 28.5583 24.6599 28.831C23.7727 29.0299 23.0307 28.7103 22.3871 28.1225C20.8115 29.1483 20.0137 29.1483 18.7398 28.1091C17.5487 29.1483 16.3285 29.1796 15.1239 28.1158C13.6735 29.164 12.8153 29.1617 11.5034 28.1225C10.0039 29.1528 9.16134 29.155 7.97912 28.1985C7.36231 28.4399 6.81254 28.7908 6.22925 28.86C4.78554 29.0388 3.64131 27.8745 3.63684 26.3101C3.6279 22.7657 3.6346 19.2167 3.6346 15.6723C3.6346 15.4667 3.6346 15.2633 3.6346 14.9951C3.07813 14.9951 2.57306 14.9996 2.07022 14.9929C1.39307 14.984 1.2478 14.8342 1.2344 14.1571C1.22993 13.8576 1.2344 13.5604 1.2344 13.2475C0.744967 13.1067 0.0208815 13.3391 0.0432298 12.5636C0.0633433 11.853 0.738262 12.0452 1.2344 11.9491ZM4.85929 18.6066C4.85929 19.7598 4.85929 20.9085 4.85929 22.0594C4.85929 23.5099 4.85035 24.9647 4.86376 26.4151C4.8727 27.175 5.34425 27.6555 6.03481 27.6644C6.74102 27.6733 7.2528 27.166 7.25503 26.3973C7.26174 21.2124 7.2595 16.0232 7.25503 10.8384C7.25503 10.6551 7.21034 10.4607 7.13882 10.2908C6.93322 9.79469 6.41921 9.5131 5.90519 9.58685C5.34872 9.66507 4.93751 10.074 4.87717 10.6283C4.85259 10.8339 4.85929 11.044 4.85929 11.2518C4.85706 13.7012 4.85929 16.155 4.85929 18.6066ZM10.8844 18.705C10.8844 16.1573 10.8844 13.6118 10.8844 11.0641C10.8844 10.1433 10.4397 9.58908 9.70217 9.57344C8.94904 9.55556 8.48866 10.1254 8.48196 11.0775C8.48196 11.1535 8.48196 11.2272 8.48196 11.3054C8.48196 16.1908 8.48196 21.0739 8.48196 25.9615C8.48196 26.1693 8.47749 26.3771 8.49537 26.5827C8.55124 27.1973 9.00044 27.6309 9.60161 27.6599C10.2251 27.6935 10.7525 27.2912 10.8621 26.6788C10.8933 26.4956 10.8844 26.3034 10.8844 26.1157C10.8844 23.6439 10.8844 21.1745 10.8844 18.705ZM12.1024 18.5888C12.1024 20.0973 12.1024 21.6058 12.1024 23.1143C12.1024 24.2272 12.089 25.3402 12.1113 26.4509C12.127 27.2599 12.7214 27.756 13.488 27.651C14.1271 27.5638 14.5026 27.0521 14.5026 26.2431C14.5048 21.1677 14.5048 16.0969 14.5026 11.0216C14.5026 10.8898 14.5071 10.7557 14.4892 10.626C14.3663 9.78128 13.4835 9.32314 12.7415 9.72094C12.2253 9.99582 12.1002 10.4584 12.1002 11.006C12.1091 13.5336 12.1024 16.0612 12.1024 18.5888ZM15.7273 18.5932C15.7273 19.1586 15.7273 19.724 15.7273 20.2895C15.7273 22.3075 15.7183 24.3278 15.7318 26.3436C15.7362 27.2353 16.3128 27.765 17.1151 27.6532C17.7565 27.5616 18.1275 27.0543 18.1275 26.2408C18.1275 21.1655 18.1275 16.0947 18.1275 11.0194C18.1275 10.8875 18.132 10.7534 18.1141 10.6238C17.9845 9.77904 17.1017 9.32314 16.3597 9.72317C15.8457 9.99806 15.7206 10.4629 15.7228 11.0104C15.7318 13.5358 15.7273 16.0656 15.7273 18.5932ZM19.3499 18.5776C19.3499 19.952 19.3477 21.3287 19.3499 22.7076C19.3499 23.9524 19.3365 25.1972 19.3544 26.442C19.3678 27.2353 19.9176 27.7225 20.6663 27.6599C21.3434 27.6018 21.7502 27.0856 21.7502 26.2565C21.7502 21.9566 21.7502 17.6546 21.7502 13.357C21.7502 12.5279 21.7524 11.6988 21.7502 10.8674C21.7457 10.2819 21.4954 9.84832 20.9255 9.64942C20.1053 9.3656 19.3589 9.93995 19.3544 10.8853C19.341 13.4464 19.3499 16.0098 19.3499 18.5776ZM22.9704 18.6223C22.9704 19.7732 22.9704 20.9219 22.9704 22.0751C22.9726 23.5255 22.9592 24.9804 22.9771 26.4308C22.9883 27.2264 23.5291 27.7158 24.2777 27.6577C24.9594 27.6063 25.3706 27.0878 25.3706 26.2632C25.3728 22.3053 25.3728 18.3429 25.3728 14.3828C25.3728 13.214 25.3728 12.0452 25.3706 10.8763C25.3683 10.2886 25.1248 9.85279 24.5571 9.64942C23.719 9.35219 22.9771 9.94219 22.9726 10.9277C22.9637 13.4933 22.9726 16.0589 22.9704 18.6223ZM2.45908 11.3971C2.45908 12.2195 2.45908 12.9771 2.45908 13.7705C2.85688 13.7705 3.21893 13.7705 3.59885 13.7705C3.59885 12.9682 3.59885 12.1927 3.59885 11.3971C3.21222 11.3971 2.86359 11.3971 2.45908 11.3971Z" fill="#26416B"/>
<path fill-rule="evenodd" clip-rule="evenodd" d="M16.4177 2.13591C16.1562 2.72591 16.011 3.31143 15.6758 3.75393C15.0925 4.51824 15.0366 5.2468 15.5126 6.04463C15.7383 6.42455 15.8456 6.80224 15.3875 7.06148C14.9159 7.32743 14.6634 6.98773 14.4511 6.62792C13.7516 5.45464 13.765 4.27465 14.5717 3.2578C15.1617 2.51583 15.1595 1.79398 14.7125 1.01626C14.6746 0.951451 14.6366 0.886641 14.6008 0.819596C14.4242 0.475432 14.4935 0.135738 14.8377 0.0239959C15.0567 -0.0475187 15.5059 0.048579 15.5953 0.209487C15.9194 0.806187 16.1384 1.46099 16.4177 2.13591Z" fill="#26416B"/>
<path fill-rule="evenodd" clip-rule="evenodd" d="M11.338 3.9305C11.1592 4.30595 11.0407 4.71269 10.7994 5.01886C10.5088 5.38984 10.4686 5.71836 10.7078 6.09605C10.9402 6.46703 10.9759 6.8179 10.5558 7.05926C10.12 7.3118 9.85628 7.03244 9.6462 6.68158C9.17019 5.88821 9.18136 5.11719 9.75124 4.4311C10.0529 4.06682 10.082 3.7383 9.84287 3.35838C9.61939 3.00751 9.59927 2.65888 9.97919 2.43092C10.3971 2.17839 10.7122 2.40858 10.8955 2.78179C11.0676 3.12819 11.1771 3.50364 11.338 3.9305Z" fill="#26416B"/>
<path fill-rule="evenodd" clip-rule="evenodd" d="M20.988 3.92824C20.8249 4.28581 20.7109 4.69479 20.474 5.00543C20.1947 5.36971 20.1142 5.68705 20.3556 6.07591C20.5947 6.45807 20.6483 6.84023 20.1835 7.07488C19.7365 7.30284 19.4862 6.98773 19.2873 6.64356C18.8337 5.86137 18.8672 5.09482 19.4415 4.39532C19.7276 4.04669 19.7455 3.73828 19.5153 3.37624C19.2851 3.01196 19.2493 2.64321 19.6717 2.41079C20.103 2.17613 20.398 2.45102 20.5768 2.81082C20.74 3.14381 20.8361 3.50809 20.988 3.92824Z" fill="#26416B"/>
</svg>
