<svg width="29" height="29" viewBox="0 0 29 29" fill="none" xmlns="http://www.w3.org/2000/svg">
<path fill-rule="evenodd" clip-rule="evenodd" d="M20.9907 0C23.3639 0 25.7082 0 28.0669 0C28.0669 9.44219 28.0669 18.8772 28.0669 28.3193C23.3531 28.3193 18.6446 28.3193 13.9271 28.3193C13.9271 25.9624 13.9271 23.6145 13.9271 21.2431C15.0993 21.2431 16.2696 21.2431 17.458 21.2431C17.458 18.8717 17.458 16.5274 17.458 14.1651C18.641 14.1651 19.8077 14.1651 20.9907 14.1651C20.9907 9.43858 20.9907 4.72832 20.9907 0ZM25.4355 23.889C26.0261 23.889 26.604 23.889 27.1838 23.889C27.1838 23.2966 27.1838 22.7187 27.1838 22.1389C26.595 22.1389 26.0188 22.1389 25.4355 22.1389C25.4355 22.7205 25.4355 23.3002 25.4355 23.889ZM27.1874 0.888591C26.595 0.888591 26.0206 0.888591 25.4373 0.888591C25.4373 1.47737 25.4373 2.05713 25.4373 2.64591C26.0224 2.64591 26.5986 2.64591 27.1874 2.64591C27.1874 2.05893 27.1874 1.47918 27.1874 0.888591ZM25.4337 6.18582C26.0224 6.18582 26.6004 6.18582 27.1838 6.18582C27.1838 5.59704 27.1838 5.01368 27.1838 4.42851C26.5932 4.42851 26.017 4.42851 25.4337 4.42851C25.4337 5.01548 25.4337 5.59162 25.4337 6.18582ZM27.1874 27.438C27.1874 26.8456 27.1874 26.264 27.1874 25.6807C26.5986 25.6807 26.0206 25.6807 25.4391 25.6807C25.4391 26.2694 25.4391 26.851 25.4391 27.438C26.0224 27.438 26.595 27.438 27.1874 27.438ZM25.4391 7.97384C25.4391 8.56443 25.4391 9.14419 25.4391 9.72574C26.0279 9.72574 26.6058 9.72574 27.1838 9.72574C27.1838 9.13696 27.1838 8.55721 27.1838 7.97384C26.595 7.97384 26.0188 7.97384 25.4391 7.97384ZM23.642 0.888591C23.0569 0.888591 22.4807 0.888591 21.8955 0.888591C21.8955 1.47737 21.8955 2.05532 21.8955 2.64591C22.4807 2.64591 23.0569 2.64591 23.642 2.64591C23.642 2.05532 23.642 1.47557 23.642 0.888591ZM25.4319 16.8056C26.0224 16.8056 26.5986 16.8056 27.1874 16.8056C27.1874 16.2204 27.1874 15.6407 27.1874 15.0609C26.595 15.0609 26.017 15.0609 25.4319 15.0609C25.4319 15.6443 25.4319 16.2168 25.4319 16.8056ZM20.0967 23.8926C20.0967 23.2966 20.0967 22.7187 20.0967 22.1389C19.5061 22.1389 18.93 22.1389 18.3538 22.1389C18.3538 22.7277 18.3538 23.3057 18.3538 23.8926C18.9372 23.8926 19.5151 23.8926 20.0967 23.8926ZM23.642 22.1425C23.0532 22.1425 22.4753 22.1425 21.8955 22.1425C21.8955 22.7313 21.8955 23.3075 21.8955 23.8926C22.4807 23.8926 23.0569 23.8926 23.642 23.8926C23.642 23.3039 23.642 22.7241 23.642 22.1425ZM23.6402 6.18582C23.6402 5.59343 23.6402 5.01368 23.6402 4.42851C23.0532 4.42851 22.4771 4.42851 21.8992 4.42851C21.8992 5.01729 21.8992 5.59704 21.8992 6.18582C22.4807 6.18582 23.0532 6.18582 23.6402 6.18582ZM16.564 25.677C15.9734 25.677 15.3973 25.677 14.8157 25.677C14.8157 26.2658 14.8157 26.8474 14.8157 27.4307C15.4045 27.4307 15.9806 27.4307 16.564 27.4307C16.564 26.8438 16.564 26.2694 16.564 25.677ZM27.1874 13.2639C27.1874 12.6733 27.1874 12.0971 27.1874 11.5192C26.5986 11.5192 26.0188 11.5192 25.4373 11.5192C25.4373 12.1062 25.4373 12.6823 25.4373 13.2639C26.0224 13.2639 26.5986 13.2639 27.1874 13.2639ZM18.3592 25.6734C18.3592 26.2694 18.3592 26.851 18.3592 27.4307C18.948 27.4307 19.5242 27.4307 20.0985 27.4307C20.0985 26.8384 20.0985 26.2604 20.0985 25.6734C19.5151 25.6734 18.9426 25.6734 18.3592 25.6734ZM23.6456 25.677C23.0496 25.677 22.4753 25.677 21.8992 25.677C21.8992 26.2694 21.8992 26.851 21.8992 27.4307C22.4879 27.4307 23.0641 27.4307 23.6456 27.4307C23.6456 26.8402 23.6456 26.2658 23.6456 25.677ZM27.1874 18.6008C26.5968 18.6008 26.017 18.6008 25.4373 18.6008C25.4373 19.1896 25.4373 19.7657 25.4373 20.3437C26.0261 20.3437 26.604 20.3437 27.1874 20.3437C27.1874 19.7513 27.1874 19.1752 27.1874 18.6008ZM16.5622 22.1353C15.977 22.1353 15.4009 22.1353 14.8157 22.1353C14.8157 22.7241 14.8157 23.302 14.8157 23.889C15.4063 23.889 15.9842 23.889 16.5622 23.889C16.5622 23.2966 16.5622 22.7205 16.5622 22.1353ZM18.3538 20.3473C18.948 20.3473 19.5242 20.3473 20.0985 20.3473C20.0985 19.7585 20.0985 19.177 20.0985 18.5972C19.5115 18.5972 18.9336 18.5972 18.3538 18.5972C18.3538 19.1824 18.3538 19.7585 18.3538 20.3473ZM21.8992 7.96843C21.8992 8.56443 21.8992 9.14238 21.8992 9.72394C22.4861 9.72394 23.0641 9.72394 23.6384 9.72394C23.6384 9.13335 23.6384 8.5554 23.6384 7.96843C23.0551 7.96843 22.4825 7.96843 21.8992 7.96843ZM23.6456 18.6008C23.0496 18.6008 22.4753 18.6008 21.8992 18.6008C21.8992 19.1896 21.8992 19.7675 21.8992 20.3473C22.4879 20.3473 23.0641 20.3473 23.6456 20.3473C23.6456 19.7585 23.6456 19.1824 23.6456 18.6008ZM23.642 13.2657C23.642 12.6733 23.642 12.0989 23.642 11.5156C23.0551 11.5156 22.4771 11.5156 21.8992 11.5156C21.8992 12.1062 21.8992 12.6841 21.8992 13.2657C22.4843 13.2657 23.0569 13.2657 23.642 13.2657ZM18.3538 16.802C18.9462 16.802 19.5224 16.802 20.1003 16.802C20.1003 16.2132 20.1003 15.637 20.1003 15.0573C19.5151 15.0573 18.939 15.0573 18.3538 15.0573C18.3538 15.6407 18.3538 16.2168 18.3538 16.802ZM21.8974 15.0573C21.8974 15.6497 21.8974 16.224 21.8974 16.802C22.4843 16.802 23.0605 16.802 23.6438 16.802C23.6438 16.2168 23.6438 15.6407 23.6438 15.0573C23.0605 15.0573 22.4843 15.0573 21.8974 15.0573Z" fill="#26416B"/>
<path fill-rule="evenodd" clip-rule="evenodd" d="M6.82562 0.595978C6.91593 0.595978 7.05319 0.595978 7.18864 0.595978C7.17961 0.612233 7.17058 0.624875 7.15975 0.639324C7.23018 0.70073 7.28798 0.78381 7.36744 0.819932C10.0621 2.04265 12.7568 3.26175 15.4533 4.47724C15.5291 4.51156 15.6158 4.5242 15.6971 4.52781C15.8669 4.53684 16.0384 4.54587 16.2064 4.52781C16.5785 4.48808 16.9017 4.57838 17.1961 4.81137C17.3659 4.94682 17.5646 5.04977 17.738 5.19606C16.8114 5.19606 15.8867 5.19606 14.9403 5.19606C14.9403 5.41099 14.9403 5.61507 14.9403 5.83C14.8645 5.83722 14.8013 5.84264 14.7272 5.84986C14.7272 7.26944 14.7272 8.68902 14.7272 10.1194C14.7904 10.1285 14.8573 10.1393 14.9295 10.1501C14.9295 10.3596 14.9295 10.5637 14.9295 10.7895C14.7146 10.7895 14.5069 10.7895 14.2847 10.7895C14.2847 11.3151 14.2847 11.8208 14.2847 12.3409C14.8627 12.3409 15.4388 12.3409 16.0276 12.3409C16.0276 13.5239 16.0276 14.6942 16.0276 15.8772C14.8555 15.8772 13.6851 15.8772 12.5057 15.8772C12.5057 14.7033 12.5057 13.5383 12.5057 12.3536C13.0133 12.3536 13.519 12.3536 14.0373 12.3536C14.0373 11.8298 14.0373 11.3241 14.0373 10.8003C13.826 10.8003 13.6147 10.8003 13.3943 10.8003C13.3943 10.5728 13.3943 10.3633 13.3943 10.1465C13.4594 10.1393 13.5208 10.1321 13.593 10.123C13.593 8.70166 13.593 7.28209 13.593 5.85167C13.5334 5.84625 13.472 5.84083 13.3925 5.83361C13.3925 5.63313 13.3925 5.42724 13.3925 5.21051C11.8122 5.21051 10.2481 5.21051 8.65879 5.21051C8.92429 5.99616 9.12657 6.7818 8.99292 7.62705C8.48541 7.62705 7.96706 7.62705 7.43788 7.62705C7.43788 14.0838 7.43788 20.5261 7.43788 26.9918C8.08265 26.9918 8.73284 26.9918 9.39206 26.9918C9.39206 27.4434 9.39206 27.8768 9.39206 28.3175C7.77381 28.3175 6.16279 28.3175 4.54093 28.3175C4.54093 27.8804 4.54093 27.4506 4.54093 27.0009C5.20195 27.0009 5.85756 27.0009 6.52581 27.0009C6.52581 19.7314 6.52581 12.4764 6.52581 5.20871C5.29587 5.20871 4.06412 5.20871 2.81432 5.20871C2.81432 5.49407 2.81432 5.77401 2.81432 6.06479C2.29597 6.06479 1.79569 6.06479 1.27192 6.06479C1.27192 5.78485 1.27192 5.50129 1.27192 5.19968C1.13105 5.19968 1.01185 5.19968 0.880005 5.19968C0.880005 4.97392 0.880005 4.76622 0.880005 4.53865C0.999206 4.53323 1.12202 4.52781 1.25386 4.52059C1.26109 4.45015 1.26831 4.38152 1.27554 4.29844C1.32611 4.29483 1.37668 4.28941 1.42544 4.28941C1.75054 4.28761 2.07382 4.28399 2.39892 4.29122C2.51812 4.29302 2.60842 4.25871 2.69873 4.18285C4.00091 3.07573 5.30671 1.97221 6.60889 0.865084C6.68655 0.800065 6.73893 0.704343 6.82562 0.595978ZM14.9692 4.5242C14.971 4.51517 14.9728 4.50614 14.9747 4.49531C12.392 3.33219 9.81107 2.17088 7.21754 1.00235C7.21754 2.18533 7.21754 3.35025 7.21754 4.5224C9.80565 4.5242 12.3865 4.5242 14.9692 4.5242ZM6.75157 1.0493C6.45718 1.29493 6.18627 1.5243 5.91355 1.75187C4.92382 2.58628 3.93228 3.41888 2.94074 4.25329C2.85947 4.32192 2.76916 4.38513 2.83599 4.5242C4.13637 4.5242 5.43855 4.5242 6.75157 4.5242C6.75157 3.37012 6.75157 2.22687 6.75157 1.0493ZM15.148 13.2494C14.552 13.2494 13.9723 13.2494 13.3979 13.2494C13.3979 13.8382 13.3979 14.4143 13.3979 14.9922C13.9867 14.9922 14.5629 14.9922 15.148 14.9922C15.148 14.4053 15.148 13.8309 15.148 13.2494ZM13.8422 5.84806C13.8422 7.28389 13.8422 8.70167 13.8422 10.1212C14.0644 10.1212 14.2739 10.1212 14.4834 10.1212C14.4834 8.69083 14.4834 7.27125 14.4834 5.84806C14.2631 5.84806 14.0572 5.84806 13.8422 5.84806ZM7.75395 6.66441C8.10433 6.66441 8.44568 6.66441 8.79967 6.66441C8.79967 6.61203 8.8087 6.56146 8.79786 6.51992C8.70756 6.16593 8.61545 5.81194 8.51972 5.46156C8.51431 5.43627 8.4818 5.40376 8.46012 5.40376C8.22533 5.39834 7.98874 5.40015 7.75395 5.40015C7.75395 5.83361 7.75395 6.2454 7.75395 6.66441Z" fill="#26416B"/>
</svg>
