<svg width="29" height="33" viewBox="0 0 29 33" fill="none" xmlns="http://www.w3.org/2000/svg">
<path fill-rule="evenodd" clip-rule="evenodd" d="M21.9515 23.1177C21.9515 23.247 21.9515 23.3265 21.9515 23.4027C21.9515 26.1404 21.9515 28.8781 21.9515 31.619C21.9515 32.0996 21.7957 32.2521 21.3251 32.2521C16.5922 32.2521 11.8626 32.2521 7.12973 32.2521C6.65578 32.2521 6.50664 32.0963 6.50664 31.619C6.50664 28.9145 6.50664 26.2001 6.50664 23.4956C6.50664 23.3862 6.50664 23.2768 6.50664 23.1409C6.44698 23.1674 6.40058 23.1873 6.36412 23.2072C5.67473 23.6414 4.77655 23.4856 4.33242 22.8526C3.87173 22.193 4.0043 21.3379 4.67049 20.8275C6.30115 19.5846 7.93843 18.3484 9.57241 17.1088C10.5965 16.3332 11.6207 15.5577 12.6415 14.7788C12.7045 14.7291 12.7608 14.6264 12.7608 14.5501C12.7641 11.4015 12.7641 8.25619 12.7641 5.10756C12.7641 5.08436 12.7575 5.06447 12.7442 5.01476C12.3598 5.06779 11.9819 5.12413 11.6041 5.1871C9.71492 5.48871 7.82906 5.79032 5.93988 6.08861C5.78742 6.11181 5.69793 6.15821 5.64822 6.32061C5.53222 6.7117 5.25381 6.97685 4.90249 7.18234C5.12455 7.74578 5.3433 8.29265 5.56205 8.83951C6.08571 10.1553 6.61601 11.4678 7.13636 12.7836C7.19271 12.936 7.26893 12.9891 7.42139 12.9758C7.55065 12.9626 7.68323 12.9659 7.8158 12.9758C8.08426 12.9891 8.2765 13.168 8.28313 13.4332C8.29307 13.8409 8.2997 14.2518 8.28313 14.6595C8.26655 15.0241 8.06769 15.2925 7.72963 15.4317C7.59374 15.4914 7.5606 15.561 7.56391 15.6969C7.57054 15.9123 7.56723 16.1344 7.5606 16.3531C7.54734 16.9 7.18939 17.2845 6.64252 17.2878C5.04501 17.2977 3.44418 17.2977 1.84666 17.2878C1.31968 17.2845 0.961734 16.9232 0.925276 16.3896C0.912019 16.151 0.915333 15.9057 0.921962 15.6671C0.925276 15.5511 0.895446 15.4881 0.779444 15.4384C0.398294 15.2793 0.206063 14.981 0.206063 14.5667C0.206063 14.2088 0.202749 13.8508 0.206063 13.4929C0.209377 13.168 0.404924 12.9427 0.723101 12.9824C1.16722 13.0421 1.32631 12.8399 1.47546 12.4588C2.12507 10.7618 2.81114 9.07815 3.48395 7.39114C3.51047 7.32486 3.53367 7.25857 3.56018 7.17903C3.16246 6.95365 2.88406 6.63547 2.77137 6.19135C2.59239 5.47214 2.95366 4.73967 3.6331 4.43806C4.29265 4.14308 5.09141 4.37177 5.48582 4.98824C5.5753 5.13076 5.66811 5.14733 5.80731 5.12413C7.47774 4.85567 9.15148 4.58721 10.8219 4.31874C11.4052 4.22594 11.9886 4.12651 12.5752 4.04365C12.7045 4.02377 12.7608 3.98068 12.7774 3.84148C12.837 3.32444 13.1154 2.94329 13.5761 2.7146C13.712 2.645 13.7452 2.56546 13.7419 2.42625C13.7352 1.80316 13.7385 1.18669 13.7419 0.56359C13.7419 0.205641 13.9341 -0.00647779 14.239 0.000150907C14.534 0.0067796 14.7163 0.208955 14.7163 0.56359C14.7163 1.18337 14.7196 1.80316 14.7163 2.42625C14.7163 2.56546 14.7461 2.645 14.882 2.71129C15.346 2.93998 15.6211 3.32113 15.6874 3.83816C15.7039 3.96742 15.7503 4.02045 15.8862 4.04365C18.1267 4.39498 20.3705 4.75624 22.6077 5.12082C22.7867 5.15065 22.8861 5.11087 22.9988 4.95178C23.3733 4.43143 23.897 4.216 24.5334 4.34857C25.1631 4.48115 25.5575 4.88881 25.7 5.51854C25.8359 6.09855 25.5807 6.70839 25.0835 7.05308C25.0239 7.09617 24.9675 7.13594 24.8913 7.18897C25.0438 7.56349 25.1896 7.93801 25.3354 8.30922C25.932 9.79073 26.5253 11.2756 27.1119 12.7604C27.1749 12.9228 27.2478 12.9891 27.4268 12.9758C28.093 12.9261 28.2951 13.0852 28.2554 13.7978C28.2421 14.053 28.2554 14.3082 28.2554 14.5634C28.2521 14.981 28.0598 15.276 27.6787 15.4417C27.5627 15.4914 27.5328 15.5544 27.5362 15.6671C27.5428 15.8858 27.5428 16.1079 27.5362 16.3233C27.5196 16.9099 27.1517 17.2845 26.5651 17.2878C24.9974 17.2944 23.4264 17.2944 21.8587 17.2878C21.2621 17.2845 20.8942 16.8967 20.8876 16.3034C20.8876 16.0913 20.8843 15.8792 20.8942 15.6704C20.8942 15.5511 20.8611 15.4914 20.7451 15.4417C20.3672 15.2793 20.1717 14.981 20.1684 14.5667C20.1651 14.2121 20.1617 13.8508 20.1684 13.4929C20.175 13.1614 20.3639 12.936 20.6821 12.9824C21.1461 13.0487 21.3118 12.8399 21.4676 12.4422C22.1073 10.7585 22.7933 9.08809 23.4628 7.41434C23.4927 7.34143 23.5159 7.2652 23.5457 7.17571C23.1513 6.95696 22.8828 6.63216 22.7536 6.19798C22.7403 6.15158 22.6442 6.11512 22.5779 6.10518C20.8279 5.82014 19.0746 5.54174 17.3247 5.26333C16.8971 5.19373 16.4762 5.12413 16.0486 5.05453C15.9459 5.03796 15.8365 5.0247 15.7006 5.00481C15.7006 5.10425 15.7006 5.18379 15.7006 5.26333C15.7006 8.32248 15.7006 11.3816 15.6973 14.4408C15.6973 14.623 15.7537 14.7291 15.8962 14.8385C18.4946 16.8006 21.0864 18.766 23.6849 20.7281C24.2914 21.1888 24.5201 21.7754 24.3444 22.4051C24.0793 23.3232 22.9988 23.7508 22.1702 23.2536C22.1073 23.2171 22.0476 23.1774 21.9515 23.1177ZM14.2357 17.2546C14.2025 17.2679 14.186 17.2712 14.176 17.2778C11.9886 18.935 9.80441 20.5922 7.61363 22.2494C7.49762 22.3322 7.47442 22.4316 7.47442 22.5609C7.47774 25.3847 7.47442 28.1986 7.47442 31.0224C7.47442 31.092 7.47442 31.1716 7.47442 31.2743C7.87546 31.2743 8.24667 31.2743 8.61787 31.2743C8.90291 31.2743 8.90622 31.2743 8.90622 30.9959C8.90622 29.1763 8.90291 27.3568 8.90622 25.5405C8.90622 25.0434 9.05537 24.8942 9.53595 24.8942C10.6264 24.8876 11.7135 24.8876 12.8006 24.8876C13.2745 24.8942 13.4336 25.05 13.4369 25.514C13.4369 27.3402 13.4369 29.1664 13.4369 30.9893C13.4369 31.0721 13.4369 31.165 13.4369 31.2544C15.9591 31.2544 18.4582 31.2544 20.9638 31.2544C20.9704 31.2014 20.9771 31.1716 20.9771 31.1318C20.9771 28.2583 20.9771 25.3847 20.9704 22.5012C20.9704 22.4184 20.9042 22.3123 20.8412 22.256C20.4534 21.9511 20.0524 21.6528 19.658 21.3578C17.8516 19.9923 16.0486 18.6268 14.2357 17.2546ZM23.4993 22.0041C23.3568 21.8218 23.2673 21.6594 23.138 21.5567C20.3076 19.409 17.4738 17.2646 14.6434 15.1169C14.302 14.8584 14.1528 14.8617 13.8048 15.1235C11.4715 16.8901 9.13823 18.6566 6.80493 20.4232C6.28126 20.8176 5.75759 21.212 5.23724 21.613C5.01518 21.7887 4.97872 22.0671 5.1345 22.2792C5.28696 22.488 5.56205 22.5377 5.79736 22.3952C5.86034 22.3554 5.91668 22.3057 5.97302 22.2659C8.6013 20.2707 11.2296 18.2788 13.8612 16.2935C14.1429 16.078 14.3318 16.0847 14.6102 16.3001C14.8986 16.5189 15.1869 16.7442 15.4786 16.963C17.4407 18.4478 19.4028 19.9293 21.3615 21.4108C21.7791 21.729 22.2001 22.0439 22.6177 22.362C22.7834 22.4913 22.9756 22.5377 23.148 22.4151C23.2772 22.3289 23.3601 22.1731 23.4993 22.0041ZM9.90053 25.8753C9.90053 27.6816 9.90053 29.468 9.90053 31.2544C10.7589 31.2544 11.6008 31.2544 12.4426 31.2544C12.4426 29.4481 12.4426 27.6683 12.4426 25.8753C11.5908 25.8753 10.7523 25.8753 9.90053 25.8753ZM14.7163 13.9801C14.7163 13.927 14.7163 13.8508 14.7163 13.7713C14.7163 10.5597 14.7163 7.34806 14.7163 4.13977C14.7163 4.08011 14.7196 4.02045 14.713 3.96411C14.6831 3.72216 14.4776 3.53987 14.2324 3.53987C13.9871 3.53987 13.7783 3.71222 13.7452 3.95748C13.7352 4.0304 13.7385 4.10331 13.7385 4.17623C13.7385 7.37126 13.7385 10.5696 13.7385 13.7679C13.7385 13.8442 13.7385 13.9237 13.7385 13.9801C14.07 13.9801 14.3782 13.9801 14.7163 13.9801ZM6.152 12.9592C5.51565 11.3684 4.88923 9.79405 4.23631 8.16007C3.58338 9.79405 2.95366 11.3684 2.3173 12.9592C3.60658 12.9592 4.86272 12.9592 6.152 12.9592ZM26.1375 12.9626C25.5012 11.365 24.8714 9.79073 24.2185 8.16007C23.5656 9.79736 22.9358 11.3717 22.3028 12.9626C23.5855 12.9626 24.8383 12.9626 26.1375 12.9626ZM7.30208 13.9635C5.25381 13.9635 3.22875 13.9635 1.19042 13.9635C1.19042 14.1557 1.19042 14.3314 1.19042 14.5236C3.23206 14.5236 5.26375 14.5236 7.30208 14.5236C7.30208 14.3314 7.30208 14.1624 7.30208 13.9635ZM27.2412 13.9635C25.2227 13.9635 23.1911 13.9635 21.156 13.9635C21.156 14.1624 21.156 14.338 21.156 14.5435C21.2588 14.5435 21.345 14.5435 21.4278 14.5435C23.2176 14.5435 25.0073 14.5435 26.7938 14.5435C27.3307 14.5435 27.3307 14.5435 27.2677 13.9966C27.2644 13.99 27.2578 13.9867 27.2412 13.9635ZM6.58286 15.5312C5.01186 15.5312 3.47069 15.5312 1.92289 15.5312C1.92289 15.7963 1.92289 16.0449 1.92289 16.2935C3.48727 16.2935 5.02844 16.2935 6.58286 16.2935C6.58286 16.035 6.58286 15.7897 6.58286 15.5312ZM26.5485 15.5312C24.9675 15.5312 23.4297 15.5312 21.8819 15.5312C21.8819 15.7963 21.8819 16.0449 21.8819 16.2935C23.4429 16.2935 24.9874 16.2935 26.5485 16.2935C26.5485 16.1211 26.5485 15.962 26.5485 15.803C26.5485 15.7168 26.5485 15.6306 26.5485 15.5312ZM4.75997 5.8102C4.75666 5.51854 4.5114 5.28985 4.21974 5.29648C3.93802 5.30311 3.70933 5.53511 3.70933 5.81683C3.70933 6.10849 3.94796 6.34712 4.23962 6.34712C4.52466 6.34712 4.7666 6.09855 4.75997 5.8102ZM24.7422 5.81683C24.7422 5.52517 24.5035 5.29316 24.2119 5.29648C23.9268 5.29979 23.6981 5.52848 23.6948 5.8102C23.6882 6.09855 23.9302 6.34712 24.2152 6.34712C24.5035 6.34712 24.7455 6.10849 24.7422 5.81683Z" fill="#26416B"/>
<path fill-rule="evenodd" clip-rule="evenodd" d="M17.3577 24.8876C17.9278 24.8876 18.4979 24.8876 19.0679 24.8876C19.4789 24.8942 19.6612 25.0699 19.6612 25.4709C19.6612 26.5646 19.6612 27.6584 19.6612 28.7587C19.6612 29.1598 19.4922 29.3288 19.0845 29.3288C17.9245 29.3354 16.7678 29.3354 15.6044 29.3354C15.21 29.3354 15.0311 29.1532 15.0311 28.7521C15.0277 27.665 15.0277 26.5779 15.0311 25.4908C15.0311 25.0632 15.21 24.8876 15.6309 24.8876C16.2043 24.8876 16.7843 24.8876 17.3577 24.8876ZM18.6768 28.3445C18.6768 28.2616 18.6835 28.1953 18.6835 28.1323C18.6868 27.4529 18.6801 26.7735 18.6901 26.1006C18.6934 25.9184 18.6371 25.862 18.4581 25.862C17.7124 25.8753 16.9699 25.8686 16.2242 25.8686C16.1579 25.8686 16.0983 25.8753 16.0287 25.8819C16.0287 26.7105 16.0287 27.5258 16.0287 28.3478C16.9169 28.3445 17.782 28.3445 18.6768 28.3445Z" fill="#26416B"/>
<path fill-rule="evenodd" clip-rule="evenodd" d="M14.2159 22.4913C13.1852 22.4846 12.3533 21.6428 12.3599 20.6154C12.3665 19.578 13.2117 18.7494 14.2623 18.7626C15.2765 18.7693 16.1018 19.6244 16.0952 20.6386C16.0819 21.6693 15.2467 22.4979 14.2159 22.4913ZM13.341 20.6319C13.3443 21.1158 13.7486 21.5202 14.2358 21.5135C14.7131 21.5069 15.1075 21.1125 15.1108 20.6319C15.1108 20.1414 14.7164 19.7371 14.2259 19.7371C13.7387 19.7404 13.3376 20.1414 13.341 20.6319Z" fill="#26416B"/>
</svg>
