<svg width="23" height="28" viewBox="0 0 23 28" fill="none" xmlns="http://www.w3.org/2000/svg">
<path fill-rule="evenodd" clip-rule="evenodd" d="M19.7537 23.8973C20.5884 24.7454 21.4294 25.5957 22.2683 26.4482C22.4176 26.5981 22.5648 26.7524 22.7141 26.9023C23 27.185 23.1388 27.502 22.8066 27.8276C22.4702 28.1531 22.1695 27.9668 21.8962 27.6883C21.1056 26.8787 20.3088 26.0755 19.5245 25.2638C19.3437 25.0774 19.1923 24.8654 19.1545 24.8225C17.935 25.3087 16.8963 25.8635 15.7904 26.1334C13.8939 26.6003 12.1509 26.0541 10.5593 24.9296C10.2775 24.7304 9.89488 24.5912 9.55427 24.5869C7.40758 24.5548 5.25878 24.5719 3.10998 24.5698C1.15041 24.5655 0.00453035 23.4175 0.00242781 21.4427C0.000325264 15.3298 -0.00177728 9.21484 0.00242781 3.10198C0.00453035 1.17217 1.15882 0.0112822 3.07003 0.00699845C5.82436 0.00271474 8.58079 -0.0144201 11.3351 0.028417C11.7241 0.0348426 12.1993 0.240461 12.481 0.51676C14.1799 2.18312 15.8451 3.88376 17.483 5.61224C17.7395 5.88211 17.9182 6.34475 17.9266 6.72386C17.9707 8.79289 17.9371 10.8641 17.9623 12.931C17.9665 13.1901 18.0906 13.5457 18.2819 13.6913C21.6565 16.2915 22.2767 20.1147 19.8735 23.6552C19.8378 23.7131 19.8126 23.7773 19.7537 23.8973ZM14.0222 12.5518C14.0222 11.1511 14.0243 9.77172 14.0222 8.39451C14.0201 7.95114 14.0032 7.44781 14.5962 7.46066C15.187 7.47351 15.147 7.98755 15.147 8.42235C15.1449 9.79956 15.147 11.1746 15.147 12.5626C15.721 12.6868 16.2425 12.796 16.7807 12.9095C16.7807 10.8919 16.7807 8.90427 16.7807 6.92948C16.6987 6.90163 16.6546 6.87593 16.6125 6.87593C15.2122 6.87165 13.8098 6.86736 12.4074 6.86522C11.2489 6.86308 11.2174 6.83095 11.2174 5.67007C11.2174 4.18148 11.2174 2.6886 11.2174 1.15932C8.30746 1.15932 5.48375 1.13576 2.66214 1.17431C1.75595 1.18716 1.13359 1.97322 1.13149 2.97347C1.12518 9.18271 1.12308 15.3962 1.13149 21.6055C1.13149 22.7235 1.82954 23.4132 2.94178 23.4239C4.20541 23.4346 5.46693 23.426 6.72845 23.426C7.48327 23.426 8.23808 23.426 8.97607 23.426C8.5829 22.4344 8.22336 21.5219 7.84701 20.5731C6.52451 20.5731 5.17047 20.5731 3.81644 20.571C2.90814 20.571 2.80932 20.4724 2.80932 19.5493C2.80932 15.4562 2.80932 11.3631 2.80932 7.27003C2.80932 7.10511 2.75886 6.89521 2.83876 6.77955C2.97122 6.58678 3.18567 6.33404 3.36649 6.33404C3.54941 6.33404 3.7891 6.57607 3.89844 6.77312C3.98884 6.93804 3.93208 7.19078 3.93208 7.40497C3.93208 11.1404 3.93208 14.8779 3.93208 18.6133C3.93208 18.866 3.93208 19.1188 3.93208 19.3779C5.28611 19.3779 6.55815 19.3779 7.72085 19.3779C8.30746 17.3667 8.53033 15.3748 8.4231 13.3443C8.37264 12.3719 8.38105 11.391 8.44203 10.4207C8.45674 10.1787 8.78474 9.95806 8.96766 9.72888C9.15689 9.95163 9.39448 10.1508 9.52273 10.4057C9.60683 10.5749 9.53955 10.8277 9.53955 11.0397C9.53955 12.2648 9.53955 13.49 9.53955 14.8522C9.76663 14.6423 9.87175 14.5202 10 14.4345C10.8557 13.8669 11.4781 13.2008 11.2531 12.025C11.2237 11.8729 11.6085 11.6373 11.7998 11.4424C11.9806 11.6523 12.2287 11.8343 12.3212 12.0785C12.4116 12.3184 12.3401 12.6204 12.3401 12.931C12.9457 12.796 13.465 12.6782 14.0222 12.5518ZM8.98028 19.4422C8.98448 22.5907 11.518 25.1524 14.6151 25.1395C17.6743 25.1267 20.1805 22.5693 20.191 19.4529C20.1994 16.298 17.6827 13.7213 14.5899 13.7192C11.497 13.717 8.97397 16.2894 8.98028 19.4422ZM12.3822 2.22596C12.3822 3.32045 12.3822 4.4899 12.3822 5.66792C13.568 5.66792 14.7139 5.66792 15.7589 5.66792C14.6424 4.5306 13.5007 3.36757 12.3822 2.22596Z" fill="#26416B"/>
<path fill-rule="evenodd" clip-rule="evenodd" d="M6.98529 15.4997C6.98529 16.1046 6.98529 16.7116 6.98529 17.3186C6.98529 17.7233 6.83684 18.0732 6.47398 17.9868C6.28705 17.9425 6.03597 17.561 6.02681 17.3207C5.98283 16.1109 6.00665 14.8969 6.00482 13.6829C6.00482 13.2782 6.15326 12.9283 6.51796 13.0126C6.70489 13.059 6.93764 13.43 6.96513 13.6829C7.02927 14.2794 6.98529 14.8927 6.98529 15.4997Z" fill="#26416B"/>
</svg>
