<svg width="29" height="29" viewBox="0 0 29 29" fill="none" xmlns="http://www.w3.org/2000/svg">
<path fill-rule="evenodd" clip-rule="evenodd" d="M15.6835 9.56473C16.8245 10.5572 16.9277 11.1308 16.2881 12.3813C17.7593 13.6667 19.2408 14.9605 20.7202 16.2522C23.0642 18.297 25.4103 20.3356 27.7481 22.3866C29.3122 23.7567 29.4215 25.9026 28.0143 27.3119C26.6153 28.7068 24.4446 28.6015 23.0807 27.0437C19.8495 23.342 16.6265 19.632 13.4014 15.9262C13.3065 15.8147 13.2054 15.7095 13.1744 15.6724C12.6235 15.7735 12.1138 15.9881 11.6537 15.9117C11.1915 15.8374 10.7768 15.4681 10.2671 15.1895C9.9679 15.3814 9.75125 15.7012 9.78839 16.2687C9.85235 17.2013 9.36333 17.8988 8.51528 18.2784C7.64659 18.6663 6.80886 18.5302 6.10731 17.8822C5.43258 17.257 4.79705 16.5885 4.14709 15.9406C3.25158 15.0389 2.34988 14.1475 1.45643 13.2417C0.699167 12.472 0.515525 11.5642 0.924075 10.6686C1.31818 9.80409 2.10021 9.37284 3.16698 9.38109C3.37538 9.38316 3.63949 9.29237 3.78187 9.14999C5.82462 7.132 7.855 5.10162 9.87093 3.06093C10.0112 2.91856 10.0958 2.65032 10.0938 2.44192C10.0814 1.3834 10.5209 0.601376 11.3937 0.209332C12.2892 -0.195092 13.1889 -0.0135139 13.9606 0.754066C15.4648 2.24383 16.9587 3.74185 18.4526 5.244C19.2098 6.00745 19.3955 6.93598 18.9932 7.81911C18.5991 8.68367 17.7985 9.09841 16.7482 9.10872C16.4201 9.11079 16.0982 9.37903 15.6835 9.56473ZM10.7871 3.91311C8.72574 5.97237 6.66648 8.03164 4.66293 10.0352C6.15476 11.5353 7.68992 13.0807 9.1735 14.5684C11.208 12.536 13.2714 10.4726 15.3162 8.42574C13.8161 6.93185 12.281 5.40288 10.7871 3.91311ZM13.8656 14.7707C15.8279 17.0239 17.7943 19.2833 19.7215 21.4973C20.5593 20.6616 21.3784 19.8445 22.2038 19.0192C19.9836 17.0837 17.7262 15.1132 15.4854 13.1592C14.9283 13.7101 14.4083 14.228 13.8656 14.7707ZM22.0408 24.1549C22.6309 24.8359 23.2561 25.556 23.8813 26.274C23.9907 26.3979 24.1 26.5237 24.228 26.631C25.0657 27.3573 26.2707 27.3573 27.1085 26.6351C27.9565 25.9068 28.2268 24.6337 27.517 23.8124C26.7144 22.8798 25.7322 22.0998 24.8821 21.3033C23.8875 22.3 22.9817 23.2099 22.0408 24.1549ZM18.2421 6.95248C17.9883 6.55838 17.8439 6.21792 17.6024 5.97031C16.1622 4.50324 14.7034 3.05474 13.2466 1.60212C12.6462 1.00374 11.99 0.952152 11.5113 1.44943C11.0409 1.93639 11.1131 2.58842 11.7115 3.1868C13.1373 4.61673 14.5651 6.04666 15.9971 7.47246C16.1271 7.60245 16.2592 7.79435 16.4119 7.81911C16.7709 7.87894 17.198 7.96767 17.4972 7.82942C17.7923 7.6953 17.9677 7.29707 18.2421 6.95248ZM7.41137 17.3623C8.07165 17.3664 8.42243 17.1497 8.60607 16.7268C8.80622 16.2666 8.72368 15.8251 8.36259 15.464C6.83156 13.9288 5.30465 12.3916 3.76536 10.8688C3.26189 10.3715 2.58923 10.3653 2.14354 10.8151C1.69578 11.2691 1.71023 11.9191 2.21576 12.4308C3.72822 13.9577 5.24481 15.4784 6.77791 16.9826C6.98631 17.1869 7.29169 17.2942 7.41137 17.3623ZM15.6567 11.1597C15.506 10.9905 15.3925 10.7491 15.2522 10.7305C15.0315 10.7037 14.724 10.7574 14.5754 10.9018C13.5768 11.853 12.6132 12.8414 11.6372 13.8132C11.3731 14.0774 11.2266 14.3724 11.5154 14.6799C11.825 15.0079 12.1407 14.8759 12.4213 14.5911C13.3807 13.6275 14.3485 12.6701 15.3018 11.7024C15.4338 11.5642 15.5164 11.3764 15.6567 11.1597ZM23.2479 19.9312C22.3482 20.8226 21.494 21.6665 20.6253 22.529C20.7924 22.723 21.005 22.9685 21.2546 23.2594C22.0552 22.4527 22.8187 21.6871 23.578 20.9216C23.6936 20.8061 23.7967 20.6864 23.9412 20.5316C23.6709 20.2964 23.4233 20.0839 23.2479 19.9312Z" fill="#26416B"/>
<path fill-rule="evenodd" clip-rule="evenodd" d="M14.7384 24.7306C15.7495 25.3785 16.2261 26.2699 16.1848 27.4399C16.1621 28.129 16.028 28.2858 15.343 28.2858C11.6639 28.2879 7.98493 28.2858 4.30591 28.2858C3.3877 28.2858 2.46537 28.29 1.54716 28.2858C0.882749 28.2817 0.738312 28.127 0.713551 27.4873C0.666093 26.3009 1.1221 25.3806 2.16618 24.7368C2.09396 24.5883 2.02587 24.4624 1.97222 24.3324C1.46256 23.0572 2.33331 21.6768 3.70753 21.6665C6.8707 21.6397 10.0339 21.6562 13.1991 21.6582C14.4392 21.6582 15.671 23.0758 14.7384 24.7306ZM15.0541 27.1613C14.9695 26.1585 14.3484 25.5457 13.4158 25.5271C12.5141 25.5085 11.6124 25.523 10.7107 25.523C8.3192 25.523 5.92773 25.5168 3.53627 25.5271C2.52727 25.5312 1.82365 26.239 1.89175 27.1613C6.26406 27.1613 10.6405 27.1613 15.0541 27.1613ZM8.42856 24.417C9.93483 24.417 11.4432 24.4191 12.9515 24.4149C13.587 24.4129 13.9729 24.091 13.9708 23.5834C13.9667 23.0758 13.5829 22.7642 12.9412 22.7642C9.94309 22.7622 6.94705 22.7601 3.94894 22.7642C3.31342 22.7642 2.92963 23.0882 2.93169 23.5937C2.93582 24.0992 3.31961 24.4129 3.96132 24.4149C5.44903 24.4191 6.93879 24.417 8.42856 24.417Z" fill="#26416B"/>
<path fill-rule="evenodd" clip-rule="evenodd" d="M11.3567 6.09615C11.2308 6.29836 11.1586 6.47375 11.0368 6.59962C10.3291 7.32181 9.60897 8.03367 8.89298 8.74967C8.62887 9.01585 8.32555 9.13759 8.02429 8.84665C7.72716 8.55984 7.82827 8.2462 8.09651 7.98003C8.82489 7.24959 9.54088 6.50677 10.294 5.80728C10.4446 5.66697 10.7583 5.62157 10.977 5.66078C11.1194 5.68141 11.2225 5.93108 11.3567 6.09615Z" fill="#26416B"/>
<path fill-rule="evenodd" clip-rule="evenodd" d="M6.70366 10.6563C6.56335 10.4375 6.30749 10.2106 6.31781 10.0001C6.33019 9.82059 6.62938 9.55442 6.83778 9.51521C7.17618 9.44712 7.41553 9.71536 7.34744 10.0538C7.30411 10.2725 7.08126 10.4561 6.93889 10.6563C6.86048 10.6563 6.78207 10.6563 6.70366 10.6563Z" fill="#26416B"/>
</svg>
