<svg width="34" height="34" viewBox="0 0 34 34" fill="none" xmlns="http://www.w3.org/2000/svg">
<path fill-rule="evenodd" clip-rule="evenodd" d="M27.0643 31.2128C24.5557 31.2128 22.1017 31.2128 19.6028 31.2128C19.5835 31.4309 19.5675 31.6234 19.5514 31.8126C19.4745 32.6627 18.8746 33.2754 18.0213 33.3139C17.2578 33.3428 16.4911 33.3492 15.7309 33.3139C14.7396 33.2626 14.2616 32.6274 14.143 31.2224C13.8382 31.1967 13.5238 31.1743 13.1132 31.1454C13.1132 30.7252 13.1132 30.321 13.1132 29.9168C13.1132 28.4347 13.1196 26.9495 13.11 25.4674C13.1068 24.8034 13.341 24.303 13.8671 23.886C14.0403 23.7448 14.1622 23.4272 14.1654 23.1899C14.1847 20.4407 14.1782 17.6915 14.1782 14.9424C14.1782 13.4668 14.7589 12.8893 16.2377 12.8861C16.4558 12.8861 16.6772 12.8669 16.8921 12.8893C18.0117 13.0016 18.897 12.7322 19.8273 11.9559C22.0568 10.1017 25.3834 10.3872 27.4557 12.4434C27.8021 12.7867 28.1325 12.9118 28.5977 12.8958C29.297 12.8669 29.9931 12.8797 30.686 12.8893C31.8216 12.9022 32.4728 13.5502 32.4728 14.689C32.4856 17.5055 32.4856 20.322 32.4728 23.1353C32.4664 23.5074 32.5594 23.7416 32.8738 24.0014C33.1817 24.2581 33.4929 24.7104 33.5057 25.0825C33.5635 27.0842 33.5314 29.0891 33.5314 31.1422C33.1817 31.1679 32.8609 31.1935 32.5049 31.2192C32.492 31.4117 32.4856 31.5785 32.4728 31.7485C32.3798 32.7044 31.751 33.2947 30.7951 33.3203C30.1824 33.3364 29.5729 33.3235 28.9602 33.3203C27.7444 33.3171 27.1637 32.7622 27.0996 31.5464C27.0932 31.463 27.0803 31.3732 27.0643 31.2128ZM32.4728 30.0355C32.4728 28.5855 32.4728 27.1708 32.4728 25.7626C32.4728 24.813 32.3733 24.7104 31.4334 24.7104C26.0217 24.7104 20.6165 24.7104 15.208 24.7104C15.0572 24.7104 14.8679 24.6559 14.7589 24.7296C14.5471 24.8676 14.2199 25.0697 14.2135 25.2557C14.1718 26.8404 14.1879 28.4251 14.1879 30.0355C20.3117 30.0355 26.3586 30.0355 32.4728 30.0355ZM23.7441 19.844C23.8051 19.7703 23.8275 19.7542 23.8275 19.7382C23.8372 19.1062 23.8404 18.4711 23.8564 17.8391C23.8821 16.803 24.5012 16.155 25.5213 16.1325C26.5671 16.1101 27.6161 16.1101 28.6618 16.1325C29.6659 16.155 30.2658 16.7645 30.3043 17.7846C30.3171 18.1182 30.3043 18.4614 30.3043 18.856C30.7213 18.8303 31.0389 18.8079 31.3949 18.7854C31.3949 17.4092 31.3821 16.1004 31.4014 14.798C31.4078 14.1757 31.1319 13.9383 30.5256 13.9576C29.6338 13.98 28.7356 13.9896 27.8438 13.9447C27.5808 13.9319 27.26 13.7876 27.09 13.5951C25.0401 11.2341 21.6077 11.2309 19.5739 13.5887C19.4039 13.7843 19.0831 13.9319 18.8233 13.9447C17.8866 13.9896 16.9466 13.9255 16.0099 13.9864C15.7597 14.0025 15.3267 14.2912 15.317 14.4644C15.2593 15.8919 15.285 17.3258 15.285 18.7951C15.6699 18.8143 15.9811 18.8335 16.3532 18.8528C16.3532 18.5063 16.3532 18.2465 16.3532 17.9867C16.3628 16.7228 16.937 16.1389 18.1849 16.1325C19.1023 16.1261 20.0198 16.1261 20.934 16.1325C22.1787 16.1389 22.7882 16.742 22.7978 17.9674C22.801 18.5897 22.7978 19.2153 22.7978 19.8472C23.1828 19.844 23.4618 19.844 23.7441 19.844ZM31.3564 19.8248C30.2978 19.982 29.2713 20.0301 28.2961 20.2899C24.9696 21.1657 21.6719 21.1689 18.3453 20.2835C17.3765 20.0237 16.3468 19.982 15.2978 19.8312C15.2978 21.1913 15.2978 22.3815 15.2978 23.5908C20.6678 23.5908 25.9961 23.5908 31.3532 23.5908C31.3564 22.3622 31.3564 21.1721 31.3564 19.8248ZM24.9375 19.8793C26.4131 19.5714 27.8053 19.2794 29.2264 18.9811C29.2264 18.5577 29.2264 18.192 29.2264 17.8263C29.2264 17.3868 28.9954 17.1975 28.5752 17.2007C27.5711 17.2039 26.5703 17.2039 25.5662 17.2007C25.1588 17.2007 24.9535 17.4157 24.9407 17.7974C24.9246 18.4454 24.9375 19.0934 24.9375 19.8793ZM21.72 19.8793C21.72 19.0966 21.7328 18.4518 21.7168 17.8006C21.7071 17.374 21.4537 17.1911 21.0303 17.1975C20.3342 17.2072 19.6348 17.2007 18.9355 17.2007C17.3412 17.2007 17.3348 17.2072 17.4375 18.8047C17.4407 18.8624 17.4824 18.9234 17.5144 19.0036C18.8842 19.2859 20.2572 19.5746 21.72 19.8793ZM31.3212 31.232C30.2818 31.232 29.236 31.232 28.1967 31.232C28.1614 32.111 28.2801 32.2457 29.0821 32.2521C29.56 32.2553 30.038 32.2553 30.516 32.2489C31.2891 32.2393 31.4463 32.0468 31.3212 31.232ZM18.4223 31.2224C17.3925 31.2224 16.3596 31.2224 15.3331 31.2224C15.2272 32.0757 15.3684 32.2393 16.1639 32.2521C16.6419 32.2553 17.1231 32.2553 17.6043 32.2489C18.3998 32.2393 18.5249 32.0821 18.4223 31.2224Z" fill="#26416B"/>
<path fill-rule="evenodd" clip-rule="evenodd" d="M2.51442 12.8861C4.83051 12.8861 7.10169 12.8797 9.36646 12.899C9.52685 12.899 9.77706 13.0658 9.82839 13.2133C10.6239 15.539 11.3938 17.8776 12.1701 20.2161C12.1798 20.2514 12.1573 20.2931 12.1413 20.3862C11.7916 20.4086 11.4291 20.4343 10.98 20.4567C10.98 21.4832 10.9672 22.5066 10.9961 23.5203C10.9993 23.6646 11.2014 23.8218 11.3425 23.9341C11.9648 24.4217 12.1862 25.0921 11.9392 25.785C11.7082 26.4234 11.1115 26.8629 10.4475 26.8725C9.77065 26.8821 9.12907 26.4234 8.90452 25.7658C8.66714 25.0632 8.89169 24.4217 9.52685 23.9212C9.66479 23.809 9.85726 23.6454 9.86047 23.501C9.88934 22.5001 9.87651 21.5025 9.87651 20.4631C9.1419 20.4631 8.47466 20.4631 7.77535 20.4631C7.77535 23.6646 7.77535 26.8372 7.77535 30.0162C10.085 30.1926 9.98558 31.3956 9.81877 33.285C7.36474 33.285 4.9075 33.285 2.45347 33.285C2.17759 31.2769 2.3444 30.1509 4.46161 30.029C4.46161 26.8597 4.46161 23.6839 4.46161 20.4214C2.98919 20.4214 1.54243 20.4214 0.00585938 20.4214C0.859156 17.8583 1.67396 15.4075 2.51442 12.8861ZM10.7394 19.2987C10.162 17.5696 9.61346 15.8951 9.02963 14.2399C8.9783 14.0987 8.66393 13.9736 8.47146 13.9736C6.89959 13.9479 5.33094 13.9736 3.76229 13.9479C3.38055 13.9447 3.23299 14.0923 3.13354 14.4355C2.91541 15.1637 2.65236 15.8759 2.41177 16.6041C2.11985 17.4798 1.83435 18.3652 1.52639 19.2987C4.61879 19.2987 7.62137 19.2987 10.7394 19.2987ZM6.63655 30.0355C6.63655 26.8115 6.63655 23.6582 6.63655 20.4696C6.2901 20.4696 5.97893 20.4696 5.64852 20.4696C5.64852 23.6871 5.64852 26.8564 5.64852 30.0515C5.86666 30.0611 6.03668 30.0804 6.20669 30.0772C6.33822 30.0772 6.46332 30.0547 6.63655 30.0355ZM8.71846 32.22C8.87886 31.3603 8.75375 31.1871 7.96782 31.1775C6.72958 31.171 5.49133 31.1678 4.25309 31.1775C3.48962 31.1871 3.33564 31.4149 3.53453 32.22C5.26358 32.22 6.99583 32.22 8.71846 32.22ZM10.4122 24.4954C10.178 24.8611 9.93746 25.0697 9.94067 25.275C9.94387 25.4418 10.2679 25.7561 10.3994 25.7337C10.6079 25.6952 10.8998 25.4418 10.9223 25.2589C10.9415 25.0697 10.6656 24.8515 10.4122 24.4954Z" fill="#26416B"/>
<path fill-rule="evenodd" clip-rule="evenodd" d="M19.5517 5.38611C19.5453 8.34699 17.1202 10.7657 14.1689 10.7497C11.2177 10.7304 8.7957 8.29245 8.80533 5.34762C8.81816 2.38995 11.2433 -0.0159597 14.2106 7.97339e-05C17.1939 0.0129113 19.5614 2.39958 19.5517 5.38611ZM13.6139 1.13246C11.5801 1.47571 9.99866 3.09889 10.0243 4.78624C10.3162 4.81511 10.6114 4.84398 10.9354 4.87285C10.9354 5.2193 10.9354 5.53367 10.9354 5.87692C10.5985 5.90258 10.3034 5.92824 10.0115 5.94749C10.0564 7.72466 11.8721 9.53069 13.6171 9.54032C13.6364 9.24519 13.6589 8.94686 13.6813 8.61966C14.0278 8.61966 14.3453 8.61966 14.6822 8.61966C14.711 8.95328 14.7367 9.25161 14.7592 9.55315C16.5427 9.50824 18.3071 7.74711 18.368 5.94428C18.0729 5.92503 17.7746 5.90258 17.4538 5.88013C17.4538 5.52405 17.4538 5.20968 17.4538 4.86644C17.781 4.83436 18.0761 4.80549 18.3648 4.77982C18.4258 3.13097 16.4176 1.08755 14.7495 1.19983C14.7271 1.49174 14.7046 1.79008 14.6822 2.10445C14.3325 2.10445 14.0149 2.10445 13.6717 2.10445C13.6492 1.76762 13.6332 1.4725 13.6139 1.13246Z" fill="#26416B"/>
<path fill-rule="evenodd" clip-rule="evenodd" d="M31.3563 28.9704C26.0088 28.9704 20.6901 28.9704 15.3169 28.9704C15.3169 28.6593 15.3169 28.3513 15.3169 27.9888C20.6452 27.9888 25.9799 27.9888 31.3563 27.9888C31.3563 28.3064 31.3563 28.624 31.3563 28.9704Z" fill="#26416B"/>
<path fill-rule="evenodd" clip-rule="evenodd" d="M13.4789 6.76224C13.2287 6.53448 13.0073 6.33239 12.8213 6.16237C13.1196 5.67798 13.4885 5.28341 13.6136 4.82468C13.7452 4.3435 13.6425 3.79816 13.6425 3.24319C14.005 3.24319 14.3001 3.24319 14.5985 3.24319C15.0796 4.68353 14.7524 5.74213 13.4789 6.76224Z" fill="#26416B"/>
</svg>
