<svg width="24" height="25" viewBox="0 0 24 25" fill="none" xmlns="http://www.w3.org/2000/svg">
<path fill-rule="evenodd" clip-rule="evenodd" d="M18.5315 7.36473C16.6504 5.68041 13.6411 5.59905 11.6524 7.12794C11.4629 7.27361 11.2308 7.34433 11 7.34165C10.7692 7.34433 10.537 7.27361 10.3476 7.12794C8.35884 5.59905 5.34958 5.68041 3.46844 7.36473C1.6015 9.03635 1.51612 11.6856 3.20433 13.4461C3.22913 13.472 3.25209 13.4988 3.27319 13.5264L11 20.4448L18.7268 13.5264C18.7479 13.4988 18.7709 13.472 18.7957 13.4461C20.4839 11.6856 20.3985 9.03635 18.5315 7.36473ZM20.4231 14.5303C22.6817 12.0346 22.5128 8.35751 19.924 6.03957C17.4925 3.86241 13.7383 3.61084 11 5.27904C8.2617 3.61084 4.5075 3.86241 2.07593 6.03957C-0.512854 8.35751 -0.681729 12.0346 1.57685 14.5303C1.62271 14.6037 1.67972 14.6716 1.74682 14.7317L10.3037 22.3933C10.6917 22.7407 11.3083 22.7407 11.6962 22.3933L20.2532 14.7317C20.3203 14.6716 20.3773 14.6037 20.4231 14.5303Z" fill="#B8B8B8"/>
<path fill-rule="evenodd" clip-rule="evenodd" d="M17 10.6538C17 9.63422 16.1046 8.80767 15 8.80767V6.96152C17.2091 6.96152 19 8.61462 19 10.6538H17Z" fill="#B8B8B8"/>
<circle cx="18" cy="7.5" r="4.5" fill="#EB5757" stroke="#FAFAFA"/>
</svg>
