<svg width="21" height="21" viewBox="0 0 21 21" fill="none" xmlns="http://www.w3.org/2000/svg">
<path fill-rule="evenodd" clip-rule="evenodd" d="M11.0547 3.07164C10.7188 2.8477 10.2812 2.8477 9.9453 3.07164L2.9453 7.7383C2.6671 7.92377 2.5 8.236 2.5 8.57035V17.5C2.5 18.0523 2.94772 18.5 3.5 18.5H6.5V14.5C6.5 12.8431 7.84315 11.5 9.5 11.5H11.5C13.1569 11.5 14.5 12.8431 14.5 14.5V18.5H17.5C18.0523 18.5 18.5 18.0523 18.5 17.5V8.57035C18.5 8.236 18.3329 7.92377 18.0547 7.7383L11.0547 3.07164ZM8.8359 1.40754C9.8436 0.735737 11.1564 0.735737 12.1641 1.40754L19.1641 6.0742C19.9987 6.6306 20.5 7.56729 20.5 8.57035V17.5C20.5 19.1568 19.1569 20.5 17.5 20.5H13.5C12.9477 20.5 12.5 20.0523 12.5 19.5V14.5C12.5 13.9477 12.0523 13.5 11.5 13.5H9.5C8.94772 13.5 8.5 13.9477 8.5 14.5V19.5C8.5 20.0523 8.05228 20.5 7.5 20.5H3.5C1.84315 20.5 0.5 19.1568 0.5 17.5V8.57035C0.5 7.56729 1.0013 6.6306 1.8359 6.0742L8.8359 1.40754Z" fill="#B8B8B8"/>
</svg>
