<svg width="29" height="29" viewBox="0 0 29 29" fill="none" xmlns="http://www.w3.org/2000/svg">
<path fill-rule="evenodd" clip-rule="evenodd" d="M7.85417 8.45835H3.625V6.04169H7.85417V8.45835ZM25.375 8.45835H13.8958V6.04169H25.375V8.45835Z" fill="#26416B"/>
<path fill-rule="evenodd" clip-rule="evenodd" d="M10.875 3.02084C8.53928 3.02084 6.64581 4.91431 6.64581 7.25001C6.64581 9.58571 8.53928 11.4792 10.875 11.4792C13.2107 11.4792 15.1041 9.58571 15.1041 7.25001C15.1041 4.91431 13.2107 3.02084 10.875 3.02084Z" fill="#26416B"/>
<path fill-rule="evenodd" clip-rule="evenodd" d="M22.9583 15.7084H25.375V13.2917H22.9583V15.7084ZM3.625 15.7084H16.9167V13.2917H3.625V15.7084Z" fill="#26416B"/>
<path fill-rule="evenodd" clip-rule="evenodd" d="M19.9375 10.2708C22.2732 10.2708 24.1666 12.1643 24.1666 14.5C24.1666 16.8357 22.2732 18.7292 19.9375 18.7292C17.6018 18.7292 15.7083 16.8357 15.7083 14.5C15.7083 12.1643 17.6018 10.2708 19.9375 10.2708Z" fill="#26416B"/>
<path fill-rule="evenodd" clip-rule="evenodd" d="M9.66667 22.9584H3.625V20.5417H9.66667V22.9584ZM25.375 22.9584H15.7083V20.5417H25.375V22.9584Z" fill="#26416B"/>
<path fill-rule="evenodd" clip-rule="evenodd" d="M12.6875 17.5208C10.3518 17.5208 8.45831 19.4143 8.45831 21.75C8.45831 24.0857 10.3518 25.9792 12.6875 25.9792C15.0232 25.9792 16.9166 24.0857 16.9166 21.75C16.9166 19.4143 15.0232 17.5208 12.6875 17.5208Z" fill="#26416B"/>
</svg>
